<svg xmlns="http://www.w3.org/2000/svg" viewBox="0 0 16 16" shape-rendering="geometricPrecision">
  
  <g fill="#ffb000">
    
    <path fill-rule="evenodd" d="M3.5 0A3.5 3.5 0 0 0 0 3.5v9a3.5 3.5 0 0 0 7 0v-9A3.5 3.5 0 0 0 3.5 0Zm0 2A1.5 1.5 0 0 0 2 3.5v9a1.5 1.5 0 0 0 3 0v-9A1.5 1.5 0 0 0 3.5 2Z"></path>
    
    <rect x="2.5" y="7.25" width="2" height="1.5" rx="0.5"></rect>

    
    <path fill-rule="evenodd" d="M12.5 0A3.5 3.5 0 0 0 9 3.5v9a3.5 3.5 0 0 0 7 0v-9A3.5 3.5 0 0 0 12.5 0Zm0 2A1.5 1.5 0 0 0 11 3.5v9a1.5 1.5 0 0 0 3 0v-9A1.5 1.5 0 0 0 12.5 2Z"></path>
    
    <rect x="11.5" y="7.25" width="2" height="1.5" rx="0.5"></rect>
  </g>
</svg>